# xmcd
#
# Track frame offsets:
#	182
#	16227
#	30032
#	44177
#	57372
#	70405
#	81675
#	96345
#	108827
#	121392
#	132732
#	148245
#
# Disc length: 2129 seconds
#
# Revision: 1
# Processed by: cddbd v1.5.1PL0 Copyright (c) Steve Scherf et al.
# Submitted via: dBpowerAMP V4.0
#
DISCID=b4084f0c
DTITLE=Poly - Noite Cheia de Estrelas
DYEAR=1960
DGENRE=Instrumental
TTITLE0=Noite cheia de estrelas - Candido das Neves Indio
TTITLE1=Tristeza do Jeca - Agelino de Oliveira
TTITLE2=No Rancho Fundo - Ary Barroso e Lamartine Babo 
TTITLE3=Zingara - Joubert de Carvalho e Olegario Mariano 
TTITLE4=Nancy - Bruno Arelli e Luiz Lacerda 
TTITLE5=Triste Caboclo - Paraguassu
TTITLE6=Eu So Quero eh Beliscah - Eduardo Souto 
TTITLE7=Cancao do Jornaleiro - Heitor dos Prazeres 
TTITLE8=Cabeca Inchada - Herve Cordovil 
TTITLE9=Historia Triste de uma Praieira - Stefana de Macedo 
TTITLE10=Folia de Santos Reis - Teddy Vieira e Palmeira 
TTITLE11=Que sodade - Marcelo Tupynambah e Arlindo Leal
EXTD=
EXTT0=
EXTT1=
EXTT2=
EXTT3=
EXTT4=
EXTT5=
EXTT6=
EXTT7=
EXTT8=
EXTT9=
EXTT10=
EXTT11=
PLAYORDER=
